<?xml version="1.0" encoding="UTF-8" standalone="no"?>
<!DOCTYPE svg PUBLIC "-//W3C//DTD SVG 1.1//EN" "http://www.w3.org/Graphics/SVG/1.1/DTD/svg11.dtd">
<svg width="100%" height="100%" viewBox="0 0 2400 1950" version="1.1" xmlns="http://www.w3.org/2000/svg" xmlns:xlink="http://www.w3.org/1999/xlink" xml:space="preserve" xmlns:serif="http://www.serif.com/" style="fill-rule:evenodd;clip-rule:evenodd;stroke-linejoin:round;stroke-miterlimit:2;">
    <g id="Page-1" serif:id="Page 1" transform="matrix(4.16667,0,0,4.16667,0,0)">
        <rect x="0" y="0" width="576" height="468" style="fill:none;"/>
        <g id="Layer-1" serif:id="Layer 1">
            <g transform="matrix(1,0,0,1,189.397,368.541)">
                <path d="M0,9.074L-7.624,-7.706L-15.29,9.074L0,9.074ZM-8.618,-10.069L-6.547,-10.069L6.961,19.143L4.598,19.143L0.911,11.021L-16.201,11.021L-19.888,19.143L-22.126,19.143L-8.618,-10.069Z" style="fill:rgb(64,63,65);fill-rule:nonzero;"/>
            </g>
            <g transform="matrix(1,0,0,1,204.638,385.695)">
                <path d="M0,-25.024L0,0L7.499,0C15.579,0 20.676,-5.51 20.676,-12.428L20.676,-12.513C20.676,-19.392 15.579,-25.024 7.499,-25.024L0,-25.024ZM-2.155,-27.013L7.499,-27.013C16.614,-27.013 22.912,-20.757 22.912,-12.595L22.912,-12.513C22.912,-4.351 16.614,1.989 7.499,1.989L-2.155,1.989L-2.155,-27.013Z" style="fill:rgb(64,63,65);fill-rule:nonzero;"/>
            </g>
            <g transform="matrix(1,0,0,1,230.528,387.891)">
                <path d="M0,-29.209L2.402,-29.209L13.756,-2.527L25.15,-29.209L27.43,-29.209L14.667,0L12.761,0L0,-29.209Z" style="fill:rgb(64,63,65);fill-rule:nonzero;"/>
            </g>
            <g transform="matrix(1,0,0,1,279.583,368.541)">
                <path d="M0,9.074L-7.624,-7.706L-15.29,9.074L0,9.074ZM-8.618,-10.069L-6.547,-10.069L6.961,19.143L4.598,19.143L0.911,11.021L-16.201,11.021L-19.888,19.143L-22.126,19.143L-8.618,-10.069Z" style="fill:rgb(64,63,65);fill-rule:nonzero;"/>
            </g>
            <g transform="matrix(1,0,0,1,292.669,387.684)">
                <path d="M0,-29.002L2.03,-29.002L22.043,-3.771L22.043,-29.002L24.115,-29.002L24.115,0L22.499,0L2.071,-25.772L2.071,0L0,0L0,-29.002Z" style="fill:rgb(64,63,65);fill-rule:nonzero;"/>
            </g>
            <g transform="matrix(1,0,0,1,324.112,373.098)">
                <path d="M0,0.169L0,0.084C0,-8.12 6.132,-14.914 14.502,-14.914C19.681,-14.914 22.789,-13.008 25.772,-10.273L24.239,-8.699C21.711,-11.144 18.812,-12.968 14.46,-12.968C7.499,-12.968 2.238,-7.29 2.238,0.002L2.238,0.084C2.238,7.419 7.583,13.136 14.502,13.136C18.687,13.136 21.545,11.521 24.487,8.62L25.938,10.028C22.871,13.054 19.557,15.083 14.419,15.083C6.132,15.083 0,8.496 0,0.169" style="fill:rgb(64,63,65);fill-rule:nonzero;"/>
            </g>
            <g transform="matrix(1,0,0,1,355.969,387.684)">
                <path d="M0,-29.002L20.634,-29.002L20.634,-27.013L2.154,-27.013L2.154,-15.621L18.769,-15.621L18.769,-13.632L2.154,-13.632L2.154,-1.989L20.841,-1.989L20.841,0L0,0L0,-29.002Z" style="fill:rgb(64,63,65);fill-rule:nonzero;"/>
            </g>
            <g transform="matrix(1,0,0,1,385.879,385.695)">
                <path d="M0,-25.024L0,0L7.499,0C15.579,0 20.675,-5.51 20.675,-12.428L20.675,-12.513C20.675,-19.392 15.579,-25.024 7.499,-25.024L0,-25.024ZM-2.155,-27.013L7.499,-27.013C16.614,-27.013 22.912,-20.757 22.912,-12.595L22.912,-12.513C22.912,-4.351 16.614,1.989 7.499,1.989L-2.155,1.989L-2.155,-27.013Z" style="fill:rgb(64,63,65);fill-rule:nonzero;"/>
            </g>
            <g transform="matrix(1,0,0,1,32.9214,413.95)">
                <path d="M0,0.187L0,0.095C0,-9.456 7.302,-16.945 17.225,-16.945C23.918,-16.945 28.225,-14.136 31.126,-10.158L24.293,-4.867C22.42,-7.163 20.267,-8.705 17.131,-8.705C12.544,-8.705 9.314,-4.775 9.314,0L9.314,0.095C9.314,5.009 12.544,8.848 17.131,8.848C20.548,8.848 22.561,7.255 24.527,4.868L31.361,9.735C28.272,13.997 24.106,17.132 16.897,17.132C7.537,17.132 0,9.969 0,0.187" style="fill:rgb(205,89,40);fill-rule:nonzero;"/>
            </g>
            <g transform="matrix(1,0,0,1,76.7695,409.925)">
                <path d="M0,8.237L-12.497,-12.264L-2.153,-12.264L4.587,-0.329L11.375,-12.264L21.532,-12.264L9.081,8.097L9.081,20.501L0,20.501L0,8.237Z" style="fill:rgb(205,89,40);fill-rule:nonzero;"/>
            </g>
            <g transform="matrix(1,0,0,1,116.873,411.002)">
                <path d="M0,6.083L-6.927,6.083L-6.927,12.122L0.095,12.122C2.902,12.122 4.447,11.045 4.447,9.126L4.447,9.034C4.447,7.254 3.043,6.083 0,6.083M3.136,-3.23C3.136,-5.057 1.686,-6.039 -0.982,-6.039L-6.927,-6.039L-6.927,-0.282L-1.216,-0.282C1.545,-0.282 3.136,-1.219 3.136,-3.138L3.136,-3.23ZM-15.773,-13.341L1.031,-13.341C5.149,-13.341 8.051,-12.312 9.97,-10.438C11.281,-9.082 12.077,-7.35 12.077,-5.102L12.077,-5.01C12.077,-1.219 9.924,1.029 7.022,2.292C11,3.604 13.528,5.849 13.528,10.297L13.528,10.39C13.528,16.007 8.941,19.424 1.124,19.424L-15.773,19.424L-15.773,-13.341Z" style="fill:rgb(205,89,40);fill-rule:nonzero;"/>
            </g>
            <g transform="matrix(1,0,0,1,134.559,430.426)">
                <path d="M0,-32.765L26.353,-32.765L26.353,-25.089L8.987,-25.089L8.987,-20.079L24.714,-20.079L24.714,-12.919L8.987,-12.919L8.987,-7.723L26.586,-7.723L26.586,0L0,0L0,-32.765Z" style="fill:rgb(205,89,40);fill-rule:nonzero;"/>
            </g>
            <g transform="matrix(1,0,0,1,180.936,414.697)">
                <path d="M0,-1.308C3.042,-1.308 4.867,-2.806 4.867,-5.194L4.867,-5.288C4.867,-7.91 2.948,-9.219 -0.047,-9.219L-6.039,-9.219L-6.039,-1.308L0,-1.308ZM-15.119,-17.037L0.374,-17.037C5.382,-17.037 8.846,-15.725 11.045,-13.525C12.964,-11.606 13.948,-9.126 13.948,-5.896L13.948,-5.802C13.948,-0.747 11.28,2.575 7.208,4.307L15.024,15.729L4.587,15.729L-2.014,5.805L-6.039,5.805L-6.039,15.729L-15.119,15.729L-15.119,-17.037Z" style="fill:rgb(205,89,40);fill-rule:nonzero;"/>
            </g>
            <g transform="matrix(1,0,0,1,209.944,402.528)">
                <path d="M0,23.031L5.055,16.992C8.332,19.567 11.889,20.925 15.68,20.925C18.161,20.925 19.472,20.083 19.472,18.677L19.472,18.585C19.472,17.179 18.395,16.476 13.901,15.4C6.927,13.81 1.545,11.843 1.545,5.149L1.545,5.057C1.545,-1.029 6.366,-5.428 14.229,-5.428C19.799,-5.428 24.152,-3.93 27.709,-1.076L23.169,5.336C20.173,3.183 16.897,2.109 13.995,2.109C11.795,2.109 10.719,2.996 10.719,4.215L10.719,4.307C10.719,5.805 11.842,6.46 16.43,7.489C23.919,9.129 28.6,11.562 28.6,17.695L28.6,17.787C28.6,24.482 23.31,28.459 15.353,28.459C9.549,28.459 4.072,26.635 0,23.031" style="fill:rgb(205,89,40);fill-rule:nonzero;"/>
            </g>
            <g transform="matrix(1,0,0,1,251.033,409.925)">
                <path d="M0,8.237L-12.498,-12.264L-2.153,-12.264L4.587,-0.329L11.375,-12.264L21.532,-12.264L9.081,8.097L9.081,20.501L0,20.501L0,8.237Z" style="fill:rgb(205,89,40);fill-rule:nonzero;"/>
            </g>
            <g transform="matrix(1,0,0,1,271.245,402.528)">
                <path d="M0,23.031L5.056,16.992C8.332,19.567 11.889,20.925 15.68,20.925C18.161,20.925 19.472,20.083 19.472,18.677L19.472,18.585C19.472,17.179 18.395,16.476 13.902,15.4C6.927,13.81 1.545,11.843 1.545,5.149L1.545,5.057C1.545,-1.029 6.367,-5.428 14.229,-5.428C19.8,-5.428 24.152,-3.93 27.71,-1.076L23.169,5.336C20.173,3.183 16.897,2.109 13.995,2.109C11.796,2.109 10.719,2.996 10.719,4.215L10.719,4.307C10.719,5.805 11.842,6.46 16.43,7.489C23.919,9.129 28.6,11.562 28.6,17.695L28.6,17.787C28.6,24.482 23.31,28.459 15.354,28.459C9.549,28.459 4.072,26.635 0,23.031" style="fill:rgb(205,89,40);fill-rule:nonzero;"/>
            </g>
            <g transform="matrix(1,0,0,1,311.304,422.468)">
                <path d="M0,-16.85L-9.782,-16.85L-9.782,-24.808L18.91,-24.808L18.91,-16.85L9.081,-16.85L9.081,7.958L0,7.958L0,-16.85Z" style="fill:rgb(205,89,40);fill-rule:nonzero;"/>
            </g>
            <g transform="matrix(1,0,0,1,334.184,430.426)">
                <path d="M0,-32.765L26.353,-32.765L26.353,-25.089L8.987,-25.089L8.987,-20.079L24.714,-20.079L24.714,-12.919L8.987,-12.919L8.987,-7.723L26.586,-7.723L26.586,0L0,0L0,-32.765Z" style="fill:rgb(205,89,40);fill-rule:nonzero;"/>
            </g>
            <g transform="matrix(1,0,0,1,365.443,430.426)">
                <path d="M0,-32.765L9.595,-32.765L17.412,-20.079L25.229,-32.765L34.824,-32.765L34.824,0L25.791,0L25.791,-18.816L17.412,-5.991L17.225,-5.991L8.894,-18.769L8.894,0L0,0L0,-32.765Z" style="fill:rgb(205,89,40);fill-rule:nonzero;"/>
            </g>
            <g transform="matrix(1,0,0,1,403.579,402.528)">
                <path d="M0,23.031L5.056,16.992C8.332,19.567 11.889,20.925 15.681,20.925C18.161,20.925 19.472,20.083 19.472,18.677L19.472,18.585C19.472,17.179 18.396,16.476 13.902,15.4C6.927,13.81 1.545,11.843 1.545,5.149L1.545,5.057C1.545,-1.029 6.367,-5.428 14.229,-5.428C19.8,-5.428 24.152,-3.93 27.71,-1.076L23.17,5.336C20.175,3.183 16.897,2.109 13.995,2.109C11.796,2.109 10.719,2.996 10.719,4.215L10.719,4.307C10.719,5.805 11.842,6.46 16.429,7.489C23.918,9.129 28.6,11.562 28.6,17.695L28.6,17.787C28.6,24.482 23.31,28.459 15.354,28.459C9.549,28.459 4.072,26.635 0,23.031" style="fill:rgb(205,89,40);fill-rule:nonzero;"/>
            </g>
            <g transform="matrix(1,0,0,1,449.532,430.426)">
                <path d="M0,-32.765L9.081,-32.765L9.081,-7.957L24.949,-7.957L24.949,0L0,0L0,-32.765Z" style="fill:rgb(205,89,40);fill-rule:nonzero;"/>
            </g>
            <g transform="matrix(1,0,0,1,497.69,410.39)">
                <path d="M0,7.071L-3.651,-2.198L-7.35,7.071L0,7.071ZM-7.958,-12.964L0.795,-12.964L14.744,20.035L5.008,20.035L2.668,14.139L-10.018,14.139L-12.358,20.035L-21.859,20.035L-7.958,-12.964Z" style="fill:rgb(205,89,40);fill-rule:nonzero;"/>
            </g>
            <g transform="matrix(1,0,0,1,531.38,411.002)">
                <path d="M0,6.083L-6.927,6.083L-6.927,12.122L0.095,12.122C2.902,12.122 4.447,11.045 4.447,9.126L4.447,9.034C4.447,7.254 3.043,6.083 0,6.083M3.136,-3.23C3.136,-5.057 1.686,-6.039 -0.982,-6.039L-6.927,-6.039L-6.927,-0.282L-1.216,-0.282C1.545,-0.282 3.136,-1.219 3.136,-3.138L3.136,-3.23ZM-15.773,-13.341L1.03,-13.341C5.149,-13.341 8.051,-12.312 9.97,-10.438C11.281,-9.082 12.077,-7.35 12.077,-5.102L12.077,-5.01C12.077,-1.219 9.924,1.029 7.022,2.292C11,3.604 13.528,5.849 13.528,10.297L13.528,10.39C13.528,16.007 8.941,19.424 1.124,19.424L-15.773,19.424L-15.773,-13.341Z" style="fill:rgb(205,89,40);fill-rule:nonzero;"/>
            </g>
            <g transform="matrix(0.999523,0.0308957,0.0308957,-0.999523,350.793,120.916)">
                <path d="M0.128,-0.002C-2.507,-0.04 -4.479,1.713 -4.467,4.084C-4.456,6.407 -2.417,8.27 0.128,8.284C2.678,8.297 4.733,6.43 4.722,4.11C4.713,1.732 2.819,0.037 0.128,-0.002" style="fill:rgb(64,63,65);fill-rule:nonzero;"/>
            </g>
            <g transform="matrix(-0.999927,0.0120677,0.0120677,0.999927,351.141,249.786)">
                <path d="M0.041,-8.294C-2.637,-8.279 -4.554,-6.569 -4.554,-4.194C-4.555,-1.872 -2.502,-0.002 0.041,-0.008C2.585,-0.013 4.626,-1.877 4.635,-4.203C4.644,-6.572 2.692,-8.309 0.041,-8.294" style="fill:rgb(64,63,65);fill-rule:nonzero;"/>
            </g>
            <g transform="matrix(-0.999816,0.0191831,0.0191831,0.999816,224.495,249.791)">
                <path d="M0.089,-8.305C-2.64,-8.279 -4.457,-6.633 -4.45,-4.195C-4.441,-1.776 -2.523,-0.009 0.089,-0.016C2.705,-0.024 4.612,-1.794 4.61,-4.212C4.607,-6.718 2.825,-8.331 0.089,-8.305" style="fill:rgb(64,63,65);fill-rule:nonzero;"/>
            </g>
            <g transform="matrix(1,-0.000844798,-0.000844798,-1,224.334,120.926)">
                <path d="M-0.003,0C-2.756,0 -4.522,1.604 -4.521,4.102C-4.521,6.537 -2.631,8.287 -0.003,8.286C2.613,8.285 4.53,6.517 4.535,4.103C4.54,1.654 2.71,-0 -0.003,0" style="fill:rgb(64,63,65);fill-rule:nonzero;"/>
            </g>
            <g transform="matrix(1,0,0,1,324.505,163.967)">
                <path d="M0,35.945C0,37.056 -0.39,38.344 -1.093,39.569C-1.794,40.793 -2.71,41.78 -3.673,42.351L-10.66,46.382L-10.66,19.535L0,19.535L0,35.945ZM-24.22,-3.961L-48.443,10.022L-48.443,-2.282L-24.22,-16.265L-3.716,-4.426C-2.949,-3.984 -2.228,-3.283 -1.628,-2.457L-11.619,3.315L-24.22,-3.961ZM-34.878,4.431L-24.22,-1.722L-13.558,4.435L-24.207,10.591L-34.878,4.431ZM-12.597,47.503L-33.21,59.401C-35.181,60.477 -38.4,60.486 -40.394,59.424L-47.473,55.334L-23.253,41.35L-23.253,25.296L-33.05,19.535L-12.597,19.535L-12.597,47.503ZM-70.059,42.294C-71.976,41.102 -73.581,38.306 -73.635,36.06L-73.635,27.925L-49.415,41.909L-25.192,27.925L-25.192,40.229L-49.415,54.213L-70.059,42.294ZM-73.635,1.962C-73.624,0.841 -73.229,-0.447 -72.519,-1.666C-71.809,-2.888 -70.886,-3.867 -69.924,-4.424L-62.979,-8.435L-62.977,19.535L-38.756,33.517L-49.415,39.67L-73.635,25.686L-73.635,1.962ZM-61.04,-9.554L-40.531,-21.393C-38.518,-22.556 -35.115,-22.556 -33.104,-21.393L-26.162,-17.386L-50.384,-3.4L-50.384,24.568L-61.04,18.414L-61.04,-9.554ZM-36.821,-43.041C-70.516,-43.041 -97.832,-15.724 -97.832,17.972C-97.832,51.667 -70.516,78.986 -36.821,78.986C-3.122,78.986 24.195,51.667 24.195,17.972C24.195,-15.724 -3.122,-43.041 -36.821,-43.041" style="fill:rgb(64,63,65);fill-rule:nonzero;"/>
            </g>
            <g transform="matrix(1,0,0,1,424.842,63.0638)">
                <path d="M0,238.068C-6.828,230.546 -13.872,223.221 -20.833,215.819C-21.465,215.147 -48.69,186.21 -48.733,184.366C-48.769,182.859 -48.766,181.337 -48.759,179.791L-48.759,95.733L-48.76,95.733C-48.76,92.316 -48.872,54.675 -48.798,52.485C-48.726,50.329 -34.313,34.879 -31.557,32.168C-30.94,31.562 -21.215,21.068 -20.609,20.424C-15.424,14.903 -10.458,9.15 -4.972,3.946C0.059,-0.826 3.556,-6.079 3.815,-13.174C3.855,-14.268 4.208,-15.349 4.409,-16.438C5.141,-20.388 3.371,-22.408 -0.721,-22.198C-4.41,-22.008 -8.127,-21.956 -11.766,-21.407C-13.725,-21.112 -15.93,-20.325 -17.363,-19.029C-23.703,-13.292 -29.892,-7.389 -36.106,-1.513C-37.275,-0.409 -38.444,0.695 -39.616,1.797C-40.241,2.385 -50.501,11.91 -51.038,12.451C-53.864,15.3 -68.594,30.441 -76.761,29.935L-199.661,29.935C-199.661,29.935 -201.226,29.929 -201.991,29.893C-202.878,29.851 -203.556,29.778 -204.091,29.642C-204.318,29.55 -206.507,28.58 -211.907,23.419L-233.198,3.069C-233.282,3.021 -233.346,2.98 -233.393,2.936C-235.36,1.119 -237.312,-0.715 -239.285,-2.525C-241.718,-4.757 -244.031,-4.922 -245.839,-3.019C-247.623,-1.143 -247.359,1.249 -244.983,3.493C-234.309,13.58 -223.597,23.627 -212.925,33.715C-209.667,36.795 -205.823,38.235 -201.376,38.235C-158.608,38.23 -115.841,38.228 -73.074,38.24C-68.417,38.241 -64.482,36.67 -61.074,33.446C-45.507,18.72 -29.787,4.154 -14.361,-10.717C-11.37,-13.601 -8.254,-13.268 -4.782,-13.519C-4.963,-10.024 -5.791,-7.319 -8.181,-4.818C-22.923,10.606 -37.458,26.227 -52.14,41.709C-55.5,45.254 -57.235,49.261 -57.232,54.15C-57.204,96.917 -57.211,139.684 -57.223,182.451C-57.224,187.003 -55.76,190.889 -52.599,194.233C-38.004,209.67 -23.565,225.255 -8.817,240.545C-5.866,243.604 -5.533,246.776 -5.622,250.465C-10.091,250.458 -11.067,250.08 -13.947,247.398C-15.026,246.392 -16.057,245.297 -17.269,244.479C-18.991,243.317 -20.83,243.469 -22.346,244.901C-23.864,246.333 -24.401,248.407 -22.997,249.888C-19.706,253.358 -16.951,257.657 -11.455,258.238C-8.436,258.557 -5.463,259.302 -2.466,259.834C1.159,260.476 3.285,258.693 3.123,255.017C2.953,251.143 2.852,247.246 2.309,243.417C2.044,241.546 1.246,239.441 0,238.068" style="fill:rgb(205,89,40);fill-rule:nonzero;"/>
            </g>
            <g transform="matrix(1,0,0,1,151.397,301.127)">
                <path d="M0,-238.067C6.828,-230.545 13.872,-223.22 20.833,-215.819C21.465,-215.147 48.69,-186.209 48.733,-184.365C48.768,-182.858 48.765,-181.336 48.758,-179.79L48.758,-95.732L48.759,-95.732C48.759,-92.316 48.871,-54.675 48.797,-52.485C48.725,-50.328 34.312,-34.878 31.556,-32.167C30.939,-31.561 21.214,-21.068 20.609,-20.423C15.423,-14.902 10.458,-9.15 4.971,-3.945C-0.06,0.827 -3.556,6.08 -3.816,13.175C-3.856,14.268 -4.208,15.35 -4.41,16.438C-5.141,20.389 -3.372,22.409 0.721,22.198C4.409,22.008 8.127,21.957 11.766,21.408C13.724,21.112 15.929,20.326 17.362,19.029C23.703,13.293 29.892,7.39 36.106,1.514C37.274,0.409 38.444,-0.695 39.615,-1.796C40.241,-2.384 50.501,-11.909 51.038,-12.45C53.863,-15.299 68.594,-30.44 76.76,-29.934L199.661,-29.934C199.661,-29.934 201.225,-29.928 201.99,-29.892C202.877,-29.85 203.555,-29.777 204.09,-29.642C204.318,-29.549 206.506,-28.579 211.906,-23.418L233.197,-3.068C233.281,-3.02 233.346,-2.979 233.393,-2.936C235.359,-1.118 237.311,0.716 239.284,2.526C241.717,4.758 244.03,4.923 245.839,3.02C247.623,1.144 247.358,-1.248 244.983,-3.493C234.308,-13.579 223.596,-23.626 212.924,-33.714C209.667,-36.794 205.823,-38.235 201.375,-38.234C158.608,-38.23 115.841,-38.227 73.074,-38.239C68.416,-38.241 64.482,-36.67 61.074,-33.446C45.507,-18.72 29.787,-4.153 14.36,10.718C11.37,13.601 8.254,13.269 4.781,13.519C4.963,10.025 5.79,7.32 8.181,4.819C22.922,-10.605 37.458,-26.226 52.139,-41.709C55.5,-45.253 57.234,-49.261 57.231,-54.149C57.203,-96.916 57.21,-139.683 57.222,-182.45C57.224,-187.002 55.759,-190.888 52.598,-194.232C38.003,-209.669 23.564,-225.255 8.817,-240.544C5.866,-243.603 5.532,-246.775 5.621,-250.464C10.09,-250.457 11.067,-250.079 13.946,-247.397C15.026,-246.391 16.057,-245.296 17.269,-244.478C18.991,-243.316 20.829,-243.468 22.346,-244.9C23.863,-246.332 24.4,-248.406 22.996,-249.887C19.705,-253.357 16.951,-257.656 11.454,-258.237C8.435,-258.556 5.462,-259.301 2.465,-259.833C-1.16,-260.476 -3.285,-258.692 -3.124,-255.016C-2.953,-251.142 -2.853,-247.245 -2.31,-243.416C-2.044,-241.545 -1.247,-239.44 0,-238.067" style="fill:rgb(205,89,40);fill-rule:nonzero;"/>
            </g>
            <g transform="matrix(1,0,0,1,291.766,43.0656)">
                <path d="M0,42.929C0,30.747 0.004,18.566 -0.009,6.385C-0.01,5.282 0.012,4.142 -0.239,3.082C-0.728,1.017 -2.176,0 -4.29,0.05C-6.281,0.096 -7.633,1.121 -8.08,3.06C-8.325,4.123 -8.31,5.26 -8.311,6.363C-8.323,18.552 -8.318,30.74 -8.327,42.929L0,42.929Z" style="fill:rgb(64,63,65);fill-rule:nonzero;"/>
            </g>
            <g transform="matrix(1,0,0,1,319.802,42.8896)">
                <path d="M0,43.105L8.318,43.105C8.318,31.036 8.318,18.968 8.316,6.899C8.316,5.884 8.381,4.856 8.256,3.855C7.995,1.775 6.792,0.493 4.683,0.254C2.439,0 0.909,1.06 0.264,3.175C-0.023,4.118 0.015,5.18 0.014,6.188C0.001,18.494 0.005,30.799 0,43.105" style="fill:rgb(64,63,65);fill-rule:nonzero;"/>
            </g>
            <g transform="matrix(1,0,0,1,309.913,42.9616)">
                <path d="M0,43.033C0,30.838 0.002,18.642 -0.004,6.448C-0.004,5.433 0.052,4.396 -0.131,3.409C-0.494,1.464 -1.742,0.337 -3.732,0.167C-5.702,0 -7.232,0.805 -7.871,2.689C-8.245,3.792 -8.293,5.043 -8.295,6.227C-8.32,18.496 -8.312,30.764 -8.318,43.033L0,43.033Z" style="fill:rgb(64,63,65);fill-rule:nonzero;"/>
            </g>
            <g transform="matrix(1,0,0,1,338.041,43.0916)">
                <path d="M0,42.903L8.313,42.903C8.313,30.658 8.314,18.413 8.31,6.168C8.31,5.245 8.408,4.291 8.209,3.407C7.73,1.278 6.394,0 4.12,0.019C1.847,0.038 0.542,1.337 0.083,3.472C-0.088,4.27 0.002,5.128 0.002,5.959C-0.001,18.273 0,30.588 0,42.903" style="fill:rgb(64,63,65);fill-rule:nonzero;"/>
            </g>
            <g transform="matrix(1,0,0,1,228.854,41.9706)">
                <path d="M0,44.024L8.317,44.024L8.317,33.982C8.317,24.652 8.342,15.323 8.304,5.994C8.288,2.214 5.305,0 2.339,1.513C0.342,2.532 -0.021,4.354 -0.016,6.436C0.019,18.965 0.008,31.495 0,44.024" style="fill:rgb(64,63,65);fill-rule:nonzero;"/>
            </g>
            <g transform="matrix(1,0,0,1,247.093,42.0376)">
                <path d="M0,43.957L8.313,43.957L8.313,24.519C8.312,18.238 8.372,11.956 8.286,5.676C8.236,2.089 5.211,0 2.323,1.432C0.29,2.439 -0.026,4.27 -0.02,6.343C0.014,18.881 0.002,31.419 0,43.957" style="fill:rgb(64,63,65);fill-rule:nonzero;"/>
            </g>
            <g transform="matrix(1,0,0,1,265.299,42.3676)">
                <path d="M0,43.627L8.313,43.627L8.313,17.65C8.313,13.586 8.378,9.52 8.287,5.458C8.21,2.024 5.806,0 2.93,0.877C0.465,1.629 -0.021,3.593 -0.016,5.912C0.014,18.483 0.003,31.055 0,43.627" style="fill:rgb(64,63,65);fill-rule:nonzero;"/>
            </g>
            <g transform="matrix(1,0,0,1,218.924,77.7502)">
                <path d="M0,-18.823C-0.01,-21.877 -1.601,-23.606 -4.178,-23.569C-6.704,-23.533 -8.267,-21.761 -8.284,-18.69C-8.313,-13.518 -8.309,-8.345 -8.306,-3.172L0.017,4.783C0.02,-3.086 0.026,-10.954 0,-18.823" style="fill:rgb(64,63,65);fill-rule:nonzero;"/>
            </g>
            <g transform="matrix(0.156415,-0.987691,-0.987691,-0.156415,196.437,55.4567)">
                <path d="M-2.507,-4.721C0.436,-4.207 1.812,-2.228 1.219,0.344C0.79,2.198 -0.526,3.295 -2.507,3.449L-8.869,-5.737C-6.747,-5.41 -4.621,-5.092 -2.507,-4.721" style="fill:rgb(64,63,65);fill-rule:nonzero;"/>
            </g>
            <g transform="matrix(1,0,0,1,355.663,77.7502)">
                <path d="M0,-18.823C0.01,-21.877 1.601,-23.606 4.178,-23.569C6.704,-23.533 8.267,-21.761 8.284,-18.69C8.313,-13.518 8.309,-8.345 8.306,-3.172L-0.017,4.783C-0.02,-3.086 -0.026,-10.954 0,-18.823" style="fill:rgb(64,63,65);fill-rule:nonzero;"/>
            </g>
            <g transform="matrix(0.156415,0.987691,0.987691,-0.156415,378.15,55.4567)">
                <path d="M2.507,-4.721C-0.436,-4.207 -1.812,-2.228 -1.219,0.344C-0.79,2.198 0.526,3.295 2.507,3.449L8.869,-5.737C6.747,-5.41 4.621,-5.092 2.507,-4.721" style="fill:rgb(64,63,65);fill-rule:nonzero;"/>
            </g>
            <g transform="matrix(1,0,0,1,382.963,177.759)">
                <path d="M0,8.315C12.181,8.315 24.363,8.319 36.544,8.307C37.647,8.305 38.786,8.327 39.847,8.076C41.911,7.588 42.929,6.14 42.879,4.026C42.833,2.034 41.808,0.682 39.868,0.235C38.806,-0.009 37.669,0.006 36.566,0.005C24.377,-0.008 12.188,-0.003 0,-0.012L0,8.315Z" style="fill:rgb(64,63,65);fill-rule:nonzero;"/>
            </g>
            <g transform="matrix(1,0,0,1,382.963,222.468)">
                <path d="M0,-8.358L0,-0.041C12.068,-0.041 24.137,-0.04 36.206,-0.042C37.221,-0.043 38.249,0.023 39.25,-0.102C41.33,-0.363 42.612,-1.566 42.851,-3.675C43.105,-5.919 42.045,-7.449 39.929,-8.094C38.986,-8.381 37.925,-8.343 36.917,-8.344C24.611,-8.357 12.306,-8.353 0,-8.358" style="fill:rgb(64,63,65);fill-rule:nonzero;"/>
            </g>
            <g transform="matrix(1,0,0,1,382.963,195.954)">
                <path d="M0,8.268C12.195,8.268 24.39,8.27 36.585,8.264C37.6,8.263 38.637,8.32 39.624,8.136C41.569,7.774 42.696,6.526 42.866,4.536C43.033,2.566 42.228,1.036 40.344,0.397C39.241,0.023 37.99,-0.025 36.806,-0.028C24.537,-0.052 12.269,-0.044 0,-0.05L0,8.268Z" style="fill:rgb(64,63,65);fill-rule:nonzero;"/>
            </g>
            <g transform="matrix(1,0,0,1,382.963,240.668)">
                <path d="M0,-8.318L0,-0.005C12.245,-0.005 24.49,-0.004 36.735,-0.008C37.657,-0.008 38.612,0.089 39.496,-0.109C41.625,-0.588 42.903,-1.925 42.884,-4.199C42.865,-6.471 41.566,-7.777 39.431,-8.235C38.633,-8.407 37.775,-8.316 36.944,-8.316C24.629,-8.319 12.315,-8.318 0,-8.318" style="fill:rgb(64,63,65);fill-rule:nonzero;"/>
            </g>
            <g transform="matrix(1,0,0,1,382.963,131.483)">
                <path d="M0,-8.321L0,-0.004L10.042,-0.004C19.372,-0.004 28.701,0.021 38.03,-0.017C41.81,-0.033 44.024,-3.016 42.511,-5.982C41.492,-7.979 39.669,-8.342 37.588,-8.337C25.059,-8.302 12.529,-8.313 0,-8.321" style="fill:rgb(64,63,65);fill-rule:nonzero;"/>
            </g>
            <g transform="matrix(1,0,0,1,382.963,149.748)">
                <path d="M0,-8.347L0,-0.034L19.438,-0.034C25.719,-0.034 32.001,0.025 38.281,-0.061C41.868,-0.11 43.957,-3.136 42.525,-6.023C41.517,-8.057 39.687,-8.372 37.613,-8.367C25.076,-8.332 12.538,-8.345 0,-8.347" style="fill:rgb(64,63,65);fill-rule:nonzero;"/>
            </g>
            <g transform="matrix(1,0,0,1,382.963,167.964)">
                <path d="M0,-8.357L0,-0.044L25.977,-0.044C30.041,-0.045 34.107,0.021 38.169,-0.07C41.603,-0.148 43.627,-2.551 42.75,-5.427C41.998,-7.892 40.034,-8.378 37.715,-8.373C25.144,-8.343 12.572,-8.355 0,-8.357" style="fill:rgb(64,63,65);fill-rule:nonzero;"/>
            </g>
            <g transform="matrix(1,0,0,1,410.03,104.946)">
                <path d="M0,8.287C3.054,8.277 4.783,6.686 4.746,4.109C4.71,1.583 2.938,0.02 -0.133,0.003C-5.305,-0.026 -10.478,-0.022 -15.651,-0.02L-23.606,8.304C-15.737,8.307 -7.869,8.313 0,8.287" style="fill:rgb(64,63,65);fill-rule:nonzero;"/>
            </g>
            <g transform="matrix(0.987691,0.156415,0.156415,-0.987691,409.647,95.1074)">
                <path d="M0.617,0.189C3.56,0.704 4.936,2.683 4.343,5.254C3.915,7.108 2.599,8.207 0.617,8.36L-5.745,-0.825C-3.622,-0.499 -1.497,-0.181 0.617,0.189" style="fill:rgb(64,63,65);fill-rule:nonzero;"/>
            </g>
            <g transform="matrix(1,0,0,1,410.03,258.258)">
                <path d="M0,-8.287C3.054,-8.277 4.783,-6.685 4.746,-4.109C4.71,-1.583 2.938,-0.02 -0.133,-0.003C-5.306,0.026 -10.478,0.022 -15.651,0.02L-23.606,-8.304C-15.737,-8.307 -7.869,-8.313 0,-8.287" style="fill:rgb(64,63,65);fill-rule:nonzero;"/>
            </g>
            <g transform="matrix(-0.98771,0.156296,0.156296,0.98771,409.138,276.313)">
                <path d="M-2.404,-7.847C-5.347,-7.333 -6.723,-5.353 -6.13,-2.782C-5.702,-0.928 -4.386,0.17 -2.404,0.323L3.959,-8.861C1.836,-8.535 -0.289,-8.216 -2.404,-7.847" style="fill:rgb(64,63,65);fill-rule:nonzero;"/>
            </g>
            <g transform="matrix(1,0,0,1,284.473,321.126)">
                <path d="M0,-42.929C0,-30.748 -0.004,-18.566 0.009,-6.385C0.01,-5.282 -0.012,-4.143 0.239,-3.082C0.728,-1.018 2.175,0 4.29,-0.05C6.281,-0.096 7.633,-1.122 8.08,-3.061C8.325,-4.124 8.309,-5.26 8.311,-6.364C8.323,-18.552 8.318,-30.741 8.327,-42.929L0,-42.929Z" style="fill:rgb(64,63,65);fill-rule:nonzero;"/>
            </g>
            <g transform="matrix(1,0,0,1,256.436,321.301)">
                <path d="M0,-43.104L-8.318,-43.104C-8.318,-31.036 -8.318,-18.967 -8.316,-6.899C-8.316,-5.883 -8.382,-4.856 -8.256,-3.854C-7.995,-1.775 -6.792,-0.492 -4.683,-0.253C-2.439,0 -0.909,-1.059 -0.265,-3.175C0.023,-4.118 -0.015,-5.179 -0.014,-6.187C-0.001,-18.493 -0.005,-30.798 0,-43.104" style="fill:rgb(64,63,65);fill-rule:nonzero;"/>
            </g>
            <g transform="matrix(1,0,0,1,266.325,321.23)">
                <path d="M0,-43.033C0,-30.838 -0.002,-18.643 0.004,-6.448C0.005,-5.433 -0.052,-4.396 0.132,-3.409C0.494,-1.464 1.742,-0.337 3.732,-0.167C5.702,0 7.232,-0.805 7.871,-2.69C8.245,-3.792 8.293,-5.043 8.296,-6.227C8.321,-18.496 8.312,-30.764 8.318,-43.033L0,-43.033Z" style="fill:rgb(64,63,65);fill-rule:nonzero;"/>
            </g>
            <g transform="matrix(1,0,0,1,238.197,321.1)">
                <path d="M0,-42.903L-8.313,-42.903C-8.313,-30.658 -8.314,-18.413 -8.31,-6.168C-8.31,-5.246 -8.408,-4.291 -8.209,-3.407C-7.731,-1.278 -6.394,0 -4.12,-0.019C-1.847,-0.038 -0.542,-1.338 -0.083,-3.472C0.088,-4.27 -0.003,-5.128 -0.002,-5.959C0.001,-18.274 0,-30.588 0,-42.903" style="fill:rgb(64,63,65);fill-rule:nonzero;"/>
            </g>
            <g transform="matrix(1,0,0,1,347.384,322.221)">
                <path d="M0,-44.024L-8.317,-44.024L-8.317,-33.982C-8.317,-24.652 -8.342,-15.323 -8.304,-5.994C-8.288,-2.214 -5.305,0 -2.339,-1.513C-0.342,-2.532 0.021,-4.355 0.016,-6.436C-0.019,-18.965 -0.008,-31.495 0,-44.024" style="fill:rgb(64,63,65);fill-rule:nonzero;"/>
            </g>
            <g transform="matrix(1,0,0,1,329.145,322.154)">
                <path d="M0,-43.957L-8.313,-43.957L-8.313,-24.519C-8.312,-18.238 -8.372,-11.956 -8.286,-5.676C-8.236,-2.089 -5.211,0 -2.323,-1.432C-0.29,-2.44 0.026,-4.27 0.02,-6.344C-0.014,-18.881 -0.002,-31.419 0,-43.957" style="fill:rgb(64,63,65);fill-rule:nonzero;"/>
            </g>
            <g transform="matrix(1,0,0,1,310.939,321.823)">
                <path d="M0,-43.626L-8.313,-43.626L-8.313,-17.649C-8.312,-13.585 -8.378,-9.519 -8.287,-5.457C-8.209,-2.023 -5.805,0 -2.929,-0.877C-0.464,-1.629 0.022,-3.592 0.016,-5.911C-0.014,-18.483 -0.002,-31.054 0,-43.626" style="fill:rgb(64,63,65);fill-rule:nonzero;"/>
            </g>
            <g transform="matrix(1,0,0,1,357.314,286.441)">
                <path d="M0,18.823C0.01,21.877 1.601,23.606 4.178,23.569C6.704,23.532 8.267,21.761 8.284,18.69C8.313,13.517 8.308,8.344 8.306,3.172L-0.017,-4.783C-0.02,3.086 -0.026,10.954 0,18.823" style="fill:rgb(64,63,65);fill-rule:nonzero;"/>
            </g>
            <g transform="matrix(-0.156296,0.98771,0.98771,0.156296,379.292,300.518)">
                <path d="M5.529,-2.935C8.471,-2.421 9.847,-0.441 9.255,2.13C8.827,3.984 7.511,5.082 5.529,5.236L-0.834,-3.949C1.289,-3.623 3.414,-3.304 5.529,-2.935" style="fill:rgb(64,63,65);fill-rule:nonzero;"/>
            </g>
            <g transform="matrix(1,0,0,1,220.576,286.441)">
                <path d="M0,18.823C-0.01,21.877 -1.601,23.606 -4.178,23.569C-6.704,23.532 -8.267,21.761 -8.284,18.69C-8.313,13.517 -8.309,8.344 -8.306,3.172L0.017,-4.783C0.02,3.086 0.026,10.954 0,18.823" style="fill:rgb(64,63,65);fill-rule:nonzero;"/>
            </g>
            <g transform="matrix(-0.156296,-0.98771,-0.98771,0.156296,198.597,300.518)">
                <path d="M-5.528,-2.934C-8.471,-2.42 -9.847,-0.442 -9.255,2.13C-8.827,3.984 -7.511,5.082 -5.528,5.236L0.834,-3.949C-1.289,-3.622 -3.413,-3.305 -5.528,-2.934" style="fill:rgb(64,63,65);fill-rule:nonzero;"/>
            </g>
            <g transform="matrix(1,0,0,1,193.275,186.432)">
                <path d="M0,-8.315C-12.181,-8.315 -24.363,-8.319 -36.544,-8.306C-37.647,-8.305 -38.786,-8.327 -39.847,-8.076C-41.911,-7.587 -42.929,-6.14 -42.879,-4.025C-42.833,-2.034 -41.808,-0.682 -39.869,-0.235C-38.806,0.01 -37.669,-0.006 -36.566,-0.004C-24.377,0.008 -12.188,0.003 0,0.012L0,-8.315Z" style="fill:rgb(64,63,65);fill-rule:nonzero;"/>
            </g>
            <g transform="matrix(1,0,0,1,193.275,141.722)">
                <path d="M0,8.359L0,0.041C-12.068,0.041 -24.137,0.041 -36.206,0.043C-37.221,0.043 -38.249,-0.023 -39.25,0.103C-41.33,0.364 -42.612,1.567 -42.851,3.676C-43.105,5.92 -42.045,7.45 -39.929,8.094C-38.986,8.382 -37.925,8.344 -36.917,8.345C-24.611,8.358 -12.306,8.354 0,8.359" style="fill:rgb(64,63,65);fill-rule:nonzero;"/>
            </g>
            <g transform="matrix(1,0,0,1,193.275,168.238)">
                <path d="M0,-8.268C-12.195,-8.268 -24.39,-8.27 -36.585,-8.264C-37.6,-8.264 -38.637,-8.32 -39.624,-8.137C-41.569,-7.774 -42.696,-6.527 -42.866,-4.536C-43.033,-2.566 -42.228,-1.037 -40.344,-0.397C-39.241,-0.023 -37.99,0.025 -36.806,0.027C-24.537,0.052 -12.269,0.044 0,0.05L0,-8.268Z" style="fill:rgb(64,63,65);fill-rule:nonzero;"/>
            </g>
            <g transform="matrix(1,0,0,1,193.275,123.522)">
                <path d="M0,8.32L0,0.007C-12.245,0.007 -24.49,0.006 -36.735,0.01C-37.657,0.01 -38.612,-0.088 -39.496,0.111C-41.625,0.589 -42.903,1.926 -42.884,4.2C-42.865,6.473 -41.566,7.778 -39.431,8.237C-38.633,8.408 -37.775,8.318 -36.944,8.318C-24.629,8.321 -12.315,8.32 0,8.32" style="fill:rgb(64,63,65);fill-rule:nonzero;"/>
            </g>
            <g transform="matrix(1,0,0,1,193.275,232.708)">
                <path d="M0,8.321L0,0.004L-10.042,0.004C-19.372,0.004 -28.701,-0.021 -38.03,0.017C-41.81,0.033 -44.024,3.016 -42.511,5.982C-41.492,7.979 -39.67,8.342 -37.588,8.337C-25.059,8.302 -12.529,8.313 0,8.321" style="fill:rgb(64,63,65);fill-rule:nonzero;"/>
            </g>
            <g transform="matrix(1,0,0,1,193.275,214.444)">
                <path d="M0,8.346L0,0.033L-19.438,0.033C-25.719,0.034 -32.001,-0.026 -38.281,0.06C-41.868,0.11 -43.957,3.135 -42.525,6.023C-41.517,8.056 -39.687,8.372 -37.613,8.366C-25.076,8.332 -12.538,8.344 0,8.346" style="fill:rgb(64,63,65);fill-rule:nonzero;"/>
            </g>
            <g transform="matrix(1,0,0,1,193.275,196.227)">
                <path d="M0,8.357L0,0.044L-25.977,0.044C-30.041,0.044 -34.107,-0.021 -38.169,0.07C-41.603,0.147 -43.627,2.551 -42.75,5.427C-41.998,7.892 -40.034,8.378 -37.715,8.373C-25.144,8.342 -12.572,8.354 0,8.357" style="fill:rgb(64,63,65);fill-rule:nonzero;"/>
            </g>
            <g transform="matrix(1,0,0,1,166.208,259.246)">
                <path d="M0,-8.288C-3.054,-8.278 -4.783,-6.686 -4.746,-4.11C-4.71,-1.584 -2.938,-0.021 0.133,-0.003C5.305,0.025 10.478,0.021 15.651,0.019L23.606,-8.304C15.737,-8.307 7.869,-8.313 0,-8.288" style="fill:rgb(64,63,65);fill-rule:nonzero;"/>
            </g>
            <g transform="matrix(-0.987691,-0.156415,-0.156415,0.987691,167.1,277.3)">
                <path d="M2.404,-7.847C5.347,-7.332 6.723,-5.353 6.13,-2.782C5.702,-0.928 4.386,0.171 2.404,0.324L-3.958,-8.861C-1.835,-8.535 0.29,-8.216 2.404,-7.847" style="fill:rgb(64,63,65);fill-rule:nonzero;"/>
            </g>
            <g transform="matrix(1,0,0,1,166.208,105.933)">
                <path d="M0,8.287C-3.054,8.277 -4.783,6.686 -4.746,4.109C-4.71,1.583 -2.938,0.02 0.133,0.003C5.306,-0.026 10.478,-0.022 15.651,-0.019L23.606,8.304C15.737,8.307 7.869,8.313 0,8.287" style="fill:rgb(64,63,65);fill-rule:nonzero;"/>
            </g>
            <g transform="matrix(0.98771,-0.156296,-0.156296,-0.98771,166.591,96.0947)">
                <path d="M-0.617,0.189C-3.56,0.703 -4.936,2.682 -4.343,5.254C-3.915,7.108 -2.599,8.205 -0.617,8.359L5.746,-0.826C3.623,-0.499 1.498,-0.181 -0.617,0.189" style="fill:rgb(64,63,65);fill-rule:nonzero;"/>
            </g>
        </g>
    </g>
</svg>
